# xmcd
#
# Track frame offsets:
#	150
#	11392
#	23849
#	36658
#	48294
#	58479
#	69229
#	80845
#	95279
#	106840
#	120895
#	134190
#
# Disc length: 1952 seconds
#
# Revision: 1
# Processed by: cddbd v1.5.2PL0 Copyright (c) Steve Scherf et al.
# Submitted via: EasyCDDAExtractor 8.2.3.1
#
DISCID=a0079e0c
DTITLE=Eddy Arnold - e
DYEAR=1900
DGENRE=Country
TTITLE0=It's A Sin [org-1944]
TTITLE1=I'll Hold You In My Heart (Till I Can Hold You In My Arms)[org-1947]
TTITLE2=When My Blue Moon Turns To Gold Again [org]
TTITLE3=Cattle Call [org-1955]
TTITLE4=The Rockin' Mockin' Bird
TTITLE5=I Wouldn't Know Where To Begin
TTITLE6=You Don't Know Me
TTITLE7=It Is No Secret (What God Can Do)
TTITLE8=Welcome To My World
TTITLE9=There Goes My Everything
TTITLE10=Release Me
TTITLE11=Make The World Go Away
EXTD=
EXTT0=
EXTT1=
EXTT2=
EXTT3=
EXTT4=
EXTT5=
EXTT6=
EXTT7=
EXTT8=
EXTT9=
EXTT10=
EXTT11=
PLAYORDER=
